# Blender v2.91.2 OBJ File: ''
# www.blender.org
mtllib A.mtl
o Text.003
v 0.659050 0.170000 0.310000
v 0.568050 0.170000 0.109000
v 0.291098 0.170000 0.109000
v 0.205098 0.170000 0.310000
v 0.083355 0.170000 0.310000
v 0.384897 0.170000 -0.396000
v 0.466998 0.170000 -0.396000
v 0.780890 0.170000 0.310000
v 0.519100 0.170000 0.001000
v 0.424847 0.170000 -0.210641
v 0.337449 0.170000 0.001000
v 0.659050 -0.170000 0.310000
v 0.568050 -0.170000 0.109000
v 0.291098 -0.170000 0.109000
v 0.205098 -0.170000 0.310000
v 0.083355 -0.170000 0.310000
v 0.384897 -0.170000 -0.396000
v 0.466998 -0.170000 -0.396000
v 0.780890 -0.170000 0.310000
v 0.519100 -0.170000 0.001000
v 0.424847 -0.170000 -0.210641
v 0.337449 -0.170000 0.001000
v 0.659050 -0.170000 0.310000
v 0.654114 -0.168478 0.317654
v 0.649929 -0.164142 0.324142
v 0.647133 -0.157654 0.328478
v 0.646151 -0.150000 0.330000
v 0.646151 0.150000 0.330000
v 0.647133 0.157654 0.328478
v 0.649929 0.164142 0.324142
v 0.654114 0.168478 0.317654
v 0.659050 0.170000 0.310000
v 0.568050 -0.170000 0.109000
v 0.563114 -0.168478 0.116654
v 0.558929 -0.164142 0.123142
v 0.556133 -0.157654 0.127478
v 0.555151 -0.150000 0.129000
v 0.555151 0.150000 0.129000
v 0.556133 0.157654 0.127478
v 0.558929 0.164142 0.123142
v 0.563114 0.168478 0.116654
v 0.568050 0.170000 0.109000
v 0.291098 -0.170000 0.109000
v 0.296148 -0.168478 0.116654
v 0.300430 -0.164142 0.123142
v 0.303290 -0.157654 0.127478
v 0.304295 -0.150000 0.129000
v 0.304295 0.150000 0.129000
v 0.303290 0.157654 0.127478
v 0.300430 0.164142 0.123142
v 0.296148 0.168478 0.116654
v 0.291098 0.170000 0.109000
v 0.205098 -0.170000 0.310000
v 0.210148 -0.168478 0.317654
v 0.214430 -0.164142 0.324142
v 0.217290 -0.157654 0.328478
v 0.218295 -0.150000 0.330000
v 0.218295 0.150000 0.330000
v 0.217290 0.157654 0.328478
v 0.214430 0.164142 0.324142
v 0.210148 0.168478 0.317654
v 0.205098 0.170000 0.310000
v 0.083355 -0.170000 0.310000
v 0.071763 -0.168478 0.317654
v 0.061937 -0.164142 0.324142
v 0.055370 -0.157654 0.328478
v 0.053065 -0.150000 0.330000
v 0.053065 0.150000 0.330000
v 0.055370 0.157654 0.328478
v 0.061937 0.164142 0.324142
v 0.071763 0.168478 0.317654
v 0.083355 0.170000 0.310000
v 0.384897 -0.170000 -0.396000
v 0.379844 -0.168478 -0.403654
v 0.375559 -0.164142 -0.410142
v 0.372697 -0.157654 -0.414478
v 0.371692 -0.150000 -0.416000
v 0.371692 0.150000 -0.416000
v 0.372697 0.157654 -0.414478
v 0.375559 0.164142 -0.410142
v 0.379844 0.168478 -0.403654
v 0.384897 0.170000 -0.396000
v 0.466998 -0.170000 -0.396000
v 0.471971 -0.168478 -0.403654
v 0.476187 -0.164142 -0.410142
v 0.479004 -0.157654 -0.414478
v 0.479993 -0.150000 -0.416000
v 0.479993 0.150000 -0.416000
v 0.479004 0.157654 -0.414478
v 0.476187 0.164142 -0.410142
v 0.471971 0.168478 -0.403654
v 0.466998 0.170000 -0.396000
v 0.780890 -0.170000 0.310000
v 0.792669 -0.168478 0.317654
v 0.802655 -0.164142 0.324142
v 0.809327 -0.157654 0.328478
v 0.811670 -0.150000 0.330000
v 0.811670 0.150000 0.330000
v 0.809327 0.157654 0.328478
v 0.802655 0.164142 0.324142
v 0.792669 0.168478 0.317654
v 0.780890 0.170000 0.310000
v 0.519100 -0.170000 0.001000
v 0.507313 -0.168478 -0.006654
v 0.497320 -0.164142 -0.013142
v 0.490644 -0.157654 -0.017478
v 0.488299 -0.150000 -0.019000
v 0.488299 0.150000 -0.019000
v 0.490644 0.157654 -0.017478
v 0.497320 0.164142 -0.013142
v 0.507313 0.168478 -0.006654
v 0.519100 0.170000 0.001000
v 0.424847 -0.170000 -0.210641
v 0.425112 -0.168478 -0.191231
v 0.425337 -0.164142 -0.174777
v 0.425488 -0.157654 -0.163783
v 0.425540 -0.150000 -0.159922
v 0.425540 0.150000 -0.159922
v 0.425488 0.157654 -0.163783
v 0.425337 0.164142 -0.174777
v 0.425112 0.168478 -0.191231
v 0.424847 0.170000 -0.210641
v 0.337449 -0.170000 0.001000
v 0.348890 -0.168478 -0.006654
v 0.358589 -0.164142 -0.013142
v 0.365070 -0.157654 -0.017478
v 0.367346 -0.150000 -0.019000
v 0.367346 0.150000 -0.019000
v 0.365070 0.157654 -0.017478
v 0.358589 0.164142 -0.013142
v 0.348890 0.168478 -0.006654
v 0.337449 0.170000 0.001000
vt 0.400000 0.000000
vt 0.600000 0.000000
vt 0.500000 0.000000
vt 0.900000 0.000000
vt 0.700000 0.000000
vt 1.000000 0.000000
vt 0.800000 0.000000
vt 0.100000 0.000000
vt 0.200000 0.000000
vt 0.300000 0.000000
vt 0.000000 0.000000
vt 0.600000 0.000000
vt 0.400000 0.000000
vt 0.500000 0.000000
vt 0.900000 0.000000
vt 0.700000 0.000000
vt 1.000000 0.000000
vt 0.800000 0.000000
vt 0.100000 0.000000
vt 0.200000 0.000000
vt 0.300000 0.000000
vt 0.000000 0.000000
vt 0.000000 0.111111
vt 0.125000 0.111111
vt 0.125000 0.000000
vt 0.000000 0.000000
vt 0.000000 0.222222
vt 0.125000 0.222222
vt 0.000000 0.333333
vt 0.125000 0.333333
vt 0.000000 0.444444
vt 0.125000 0.444444
vt 0.000000 0.555556
vt 0.125000 0.555556
vt 0.000000 0.666667
vt 0.125000 0.666667
vt 0.000000 0.777778
vt 0.125000 0.777778
vt 0.000000 0.888889
vt 0.125000 0.888889
vt 0.000000 1.000000
vt 0.125000 1.000000
vt 0.250000 0.111111
vt 0.250000 0.000000
vt 0.250000 0.222222
vt 0.250000 0.333333
vt 0.250000 0.444444
vt 0.250000 0.555556
vt 0.250000 0.666667
vt 0.250000 0.777778
vt 0.250000 0.888889
vt 0.250000 1.000000
vt 0.375000 0.111111
vt 0.375000 0.000000
vt 0.375000 0.222222
vt 0.375000 0.333333
vt 0.375000 0.444444
vt 0.375000 0.555556
vt 0.375000 0.666667
vt 0.375000 0.777778
vt 0.375000 0.888889
vt 0.375000 1.000000
vt 0.500000 0.111111
vt 0.500000 0.000000
vt 0.500000 0.222222
vt 0.500000 0.333333
vt 0.500000 0.444444
vt 0.500000 0.555556
vt 0.500000 0.666667
vt 0.500000 0.777778
vt 0.500000 0.888889
vt 0.500000 1.000000
vt 0.625000 0.111111
vt 0.625000 0.000000
vt 0.625000 0.222222
vt 0.625000 0.333333
vt 0.625000 0.444444
vt 0.625000 0.555556
vt 0.625000 0.666667
vt 0.625000 0.777778
vt 0.625000 0.888889
vt 0.625000 1.000000
vt 0.750000 0.111111
vt 0.750000 0.000000
vt 0.750000 0.222222
vt 0.750000 0.333333
vt 0.750000 0.444444
vt 0.750000 0.555556
vt 0.750000 0.666667
vt 0.750000 0.777778
vt 0.750000 0.888889
vt 0.750000 1.000000
vt 0.875000 0.111111
vt 0.875000 0.000000
vt 0.875000 0.222222
vt 0.875000 0.333333
vt 0.875000 0.444444
vt 0.875000 0.555556
vt 0.875000 0.666667
vt 0.875000 0.777778
vt 0.875000 0.888889
vt 0.875000 1.000000
vt 1.000000 0.111111
vt 1.000000 0.000000
vt 1.000000 0.222222
vt 1.000000 0.333333
vt 1.000000 0.444444
vt 1.000000 0.555556
vt 1.000000 0.666667
vt 1.000000 0.777778
vt 1.000000 0.888889
vt 1.000000 1.000000
vt 0.000000 0.111111
vt 0.333333 0.111111
vt 0.333333 0.000000
vt 0.000000 0.000000
vt 0.000000 0.222222
vt 0.333333 0.222222
vt 0.000000 0.333333
vt 0.333333 0.333333
vt 0.000000 0.444444
vt 0.333333 0.444444
vt 0.000000 0.555556
vt 0.333333 0.555556
vt 0.000000 0.666667
vt 0.333333 0.666667
vt 0.000000 0.777778
vt 0.333333 0.777778
vt 0.000000 0.888889
vt 0.333333 0.888889
vt 0.000000 1.000000
vt 0.333333 1.000000
vt 0.666667 0.111111
vt 0.666667 0.000000
vt 0.666667 0.222222
vt 0.666667 0.333333
vt 0.666667 0.444444
vt 0.666667 0.555556
vt 0.666667 0.666667
vt 0.666667 0.777778
vt 0.666667 0.888889
vt 0.666667 1.000000
vt 1.000000 0.111111
vt 1.000000 0.000000
vt 1.000000 0.222222
vt 1.000000 0.333333
vt 1.000000 0.444444
vt 1.000000 0.555556
vt 1.000000 0.666667
vt 1.000000 0.777778
vt 1.000000 0.888889
vt 1.000000 1.000000
vn 0.0000 1.0000 0.0000
vn 0.0000 -1.0000 0.0000
vn -0.2088 -0.9228 0.3237
vn -0.1487 -0.9616 0.2306
vn -0.0894 -0.9863 0.1385
vn -0.3711 -0.7289 0.5753
vn -0.3278 -0.7964 0.5083
vn -0.4945 -0.4096 0.7666
vn -0.4785 -0.4697 0.7419
vn -0.5386 -0.1116 0.8351
vn -0.5380 -0.1208 0.8342
vn -0.5386 0.1116 0.8351
vn -0.5380 0.1208 0.8342
vn -0.4945 0.4096 0.7666
vn -0.4785 0.4697 0.7419
vn -0.3711 0.7289 0.5753
vn -0.3278 0.7964 0.5083
vn -0.2088 0.9228 0.3237
vn -0.1487 0.9616 0.2306
vn -0.0894 0.9863 0.1385
vn 0.1496 -0.9624 0.2268
vn 0.0902 -0.9865 0.1367
vn 0.3312 -0.7989 0.5020
vn 0.4853 -0.4728 0.7355
vn 0.5466 -0.1217 0.8285
vn 0.5466 0.1217 0.8285
vn 0.4853 0.4728 0.7355
vn 0.3312 0.7989 0.5020
vn 0.1496 0.9624 0.2268
vn 0.0902 0.9865 0.1367
vn 0.2115 -0.9233 0.3206
vn 0.3761 -0.7304 0.5701
vn 0.5020 -0.4111 0.7609
vn 0.5473 -0.1122 0.8294
vn 0.5473 0.1122 0.8294
vn 0.5020 0.4111 0.7609
vn 0.3761 0.7304 0.5701
vn 0.2115 0.9233 0.3206
vn -0.2479 -0.9548 0.1637
vn -0.0909 -0.9940 0.0600
vn -0.4714 -0.8251 0.3113
vn -0.7145 -0.5165 0.4718
vn -0.8239 -0.1585 0.5440
vn -0.8239 0.1585 0.5440
vn -0.7145 0.5165 0.4718
vn -0.4714 0.8251 0.3113
vn -0.2479 0.9548 0.1637
vn -0.0909 0.9940 0.0600
vn -0.2116 -0.9233 -0.3204
vn -0.0902 -0.9865 -0.1366
vn -0.3763 -0.7305 -0.5699
vn -0.5022 -0.4111 -0.7607
vn -0.5475 -0.1122 -0.8292
vn -0.5475 0.1122 -0.8292
vn -0.5022 0.4111 -0.7607
vn -0.3763 0.7305 -0.5699
vn -0.2116 0.9233 -0.3204
vn -0.0902 0.9865 -0.1366
vn 0.2097 -0.9230 -0.3227
vn 0.0896 -0.9864 -0.1379
vn 0.3727 -0.7294 -0.5736
vn 0.4969 -0.4100 -0.7648
vn 0.5414 -0.1118 -0.8332
vn 0.5414 0.1118 -0.8332
vn 0.4969 0.4100 -0.7648
vn 0.3727 0.7294 -0.5736
vn 0.2097 0.9230 -0.3227
vn 0.0896 0.9864 -0.1379
vn 0.2471 -0.9556 0.1605
vn 0.0903 -0.9942 0.0587
vn 0.4707 -0.8275 0.3059
vn 0.7165 -0.5195 0.4655
vn 0.8277 -0.1600 0.5378
vn 0.8277 0.1600 0.5378
vn 0.7165 0.5195 0.4655
vn 0.4707 0.8275 0.3059
vn 0.2471 0.9556 0.1605
vn 0.0903 0.9942 0.0587
vn -0.1280 -0.9883 -0.0831
vn 0.0014 -0.9948 0.1017
vn 0.0011 -0.9969 0.0782
vn -0.0903 -0.9942 -0.0586
vn -0.3435 -0.9122 -0.2231
vn 0.0040 -0.9552 0.2958
vn -0.6285 -0.6622 -0.4081
vn 0.0084 -0.7870 0.6169
vn -0.8230 -0.1927 -0.5344
vn 0.0132 -0.2696 0.9629
vn -0.8230 0.1927 -0.5344
vn 0.0132 0.2696 0.9629
vn -0.6285 0.6622 -0.4081
vn 0.0084 0.7870 0.6169
vn -0.3435 0.9122 -0.2231
vn 0.0040 0.9552 0.2958
vn -0.1280 0.9883 -0.0831
vn 0.0014 0.9948 0.1017
vn -0.0903 0.9942 -0.0586
vn 0.0011 0.9969 0.0782
vn 0.1303 -0.9876 -0.0871
vn 0.0913 -0.9939 -0.0611
vn 0.3474 -0.9084 -0.2324
vn 0.6293 -0.6533 -0.4209
vn 0.8162 -0.1885 -0.5460
vn 0.8162 0.1885 -0.5460
vn 0.6293 0.6533 -0.4209
vn 0.3474 0.9084 -0.2324
vn 0.1303 0.9876 -0.0871
vn 0.0913 0.9939 -0.0611
usemtl None
s off
f 5/1/1 7/2/1 6/3/1
f 5/1/1 10/4/1 7/2/1
f 10/4/1 8/5/1 7/2/1
f 5/1/1 11/6/1 10/4/1
f 9/7/1 8/5/1 10/4/1
f 11/6/1 2/8/1 9/7/1
f 2/8/1 8/5/1 9/7/1
f 5/1/1 3/9/1 11/6/1
f 3/9/1 2/8/1 11/6/1
f 5/1/1 4/10/1 3/9/1
f 1/11/1 8/5/1 2/8/1
f 18/12/2 16/13/2 17/14/2
f 21/15/2 16/13/2 18/12/2
f 19/16/2 21/15/2 18/12/2
f 22/17/2 16/13/2 21/15/2
f 19/16/2 20/18/2 21/15/2
f 13/19/2 22/17/2 20/18/2
f 19/16/2 13/19/2 20/18/2
f 14/20/2 16/13/2 22/17/2
f 13/19/2 14/20/2 22/17/2
f 15/21/2 16/13/2 14/20/2
f 19/16/2 12/22/2 13/19/2
s 1
f 24/23/3 34/24/4 33/25/5 23/26/5
f 25/27/6 35/28/7 34/24/4 24/23/3
f 26/29/8 36/30/9 35/28/7 25/27/6
f 27/31/10 37/32/11 36/30/9 26/29/8
f 28/33/12 38/34/13 37/32/11 27/31/10
f 29/35/14 39/36/15 38/34/13 28/33/12
f 30/37/16 40/38/17 39/36/15 29/35/14
f 31/39/18 41/40/19 40/38/17 30/37/16
f 32/41/20 42/42/20 41/40/19 31/39/18
f 34/24/4 44/43/21 43/44/22 33/25/5
f 35/28/7 45/45/23 44/43/21 34/24/4
f 36/30/9 46/46/24 45/45/23 35/28/7
f 37/32/11 47/47/25 46/46/24 36/30/9
f 38/34/13 48/48/26 47/47/25 37/32/11
f 39/36/15 49/49/27 48/48/26 38/34/13
f 40/38/17 50/50/28 49/49/27 39/36/15
f 41/40/19 51/51/29 50/50/28 40/38/17
f 42/42/20 52/52/30 51/51/29 41/40/19
f 44/43/21 54/53/31 53/54/22 43/44/22
f 45/45/23 55/55/32 54/53/31 44/43/21
f 46/46/24 56/56/33 55/55/32 45/45/23
f 47/47/25 57/57/34 56/56/33 46/46/24
f 48/48/26 58/58/35 57/57/34 47/47/25
f 49/49/27 59/59/36 58/58/35 48/48/26
f 50/50/28 60/60/37 59/59/36 49/49/27
f 51/51/29 61/61/38 60/60/37 50/50/28
f 52/52/30 62/62/30 61/61/38 51/51/29
f 54/53/31 64/63/39 63/64/40 53/54/22
f 55/55/32 65/65/41 64/63/39 54/53/31
f 56/56/33 66/66/42 65/65/41 55/55/32
f 57/57/34 67/67/43 66/66/42 56/56/33
f 58/58/35 68/68/44 67/67/43 57/57/34
f 59/59/36 69/69/45 68/68/44 58/58/35
f 60/60/37 70/70/46 69/69/45 59/59/36
f 61/61/38 71/71/47 70/70/46 60/60/37
f 62/62/30 72/72/48 71/71/47 61/61/38
f 64/63/39 74/73/49 73/74/50 63/64/40
f 65/65/41 75/75/51 74/73/49 64/63/39
f 66/66/42 76/76/52 75/75/51 65/65/41
f 67/67/43 77/77/53 76/76/52 66/66/42
f 68/68/44 78/78/54 77/77/53 67/67/43
f 69/69/45 79/79/55 78/78/54 68/68/44
f 70/70/46 80/80/56 79/79/55 69/69/45
f 71/71/47 81/81/57 80/80/56 70/70/46
f 72/72/48 82/82/58 81/81/57 71/71/47
f 74/73/49 84/83/59 83/84/60 73/74/50
f 75/75/51 85/85/61 84/83/59 74/73/49
f 76/76/52 86/86/62 85/85/61 75/75/51
f 77/77/53 87/87/63 86/86/62 76/76/52
f 78/78/54 88/88/64 87/87/63 77/77/53
f 79/79/55 89/89/65 88/88/64 78/78/54
f 80/80/56 90/90/66 89/89/65 79/79/55
f 81/81/57 91/91/67 90/90/66 80/80/56
f 82/82/58 92/92/68 91/91/67 81/81/57
f 84/83/59 94/93/69 93/94/70 83/84/60
f 85/85/61 95/95/71 94/93/69 84/83/59
f 86/86/62 96/96/72 95/95/71 85/85/61
f 87/87/63 97/97/73 96/96/72 86/86/62
f 88/88/64 98/98/74 97/97/73 87/87/63
f 89/89/65 99/99/75 98/98/74 88/88/64
f 90/90/66 100/100/76 99/99/75 89/89/65
f 91/91/67 101/101/77 100/100/76 90/90/66
f 92/92/68 102/102/78 101/101/77 91/91/67
f 94/93/69 24/103/3 23/104/5 93/94/70
f 95/95/71 25/105/6 24/103/3 94/93/69
f 96/96/72 26/106/8 25/105/6 95/95/71
f 97/97/73 27/107/10 26/106/8 96/96/72
f 98/98/74 28/108/12 27/107/10 97/97/73
f 99/99/75 29/109/14 28/108/12 98/98/74
f 100/100/76 30/110/16 29/109/14 99/99/75
f 101/101/77 31/111/18 30/110/16 100/100/76
f 102/102/78 32/112/20 31/111/18 101/101/77
f 104/113/79 114/114/80 113/115/81 103/116/82
f 105/117/83 115/118/84 114/114/80 104/113/79
f 106/119/85 116/120/86 115/118/84 105/117/83
f 107/121/87 117/122/88 116/120/86 106/119/85
f 108/123/89 118/124/90 117/122/88 107/121/87
f 109/125/91 119/126/92 118/124/90 108/123/89
f 110/127/93 120/128/94 119/126/92 109/125/91
f 111/129/95 121/130/96 120/128/94 110/127/93
f 112/131/97 122/132/98 121/130/96 111/129/95
f 114/114/80 124/133/99 123/134/100 113/115/81
f 115/118/84 125/135/101 124/133/99 114/114/80
f 116/120/86 126/136/102 125/135/101 115/118/84
f 117/122/88 127/137/103 126/136/102 116/120/86
f 118/124/90 128/138/104 127/137/103 117/122/88
f 119/126/92 129/139/105 128/138/104 118/124/90
f 120/128/94 130/140/106 129/139/105 119/126/92
f 121/130/96 131/141/107 130/140/106 120/128/94
f 122/132/98 132/142/108 131/141/107 121/130/96
f 124/133/99 104/143/79 103/144/82 123/134/100
f 125/135/101 105/145/83 104/143/79 124/133/99
f 126/136/102 106/146/85 105/145/83 125/135/101
f 127/137/103 107/147/87 106/146/85 126/136/102
f 128/138/104 108/148/89 107/147/87 127/137/103
f 129/139/105 109/149/91 108/148/89 128/138/104
f 130/140/106 110/150/93 109/149/91 129/139/105
f 131/141/107 111/151/95 110/150/93 130/140/106
f 132/142/108 112/152/97 111/151/95 131/141/107
