# Blender v2.91.2 OBJ File: ''
# www.blender.org
mtllib K.mtl
o Text.002
v -0.291557 0.170000 0.310000
v -0.624500 0.170000 -0.013348
v -0.624500 0.170000 0.310000
v -0.742500 0.170000 0.310000
v -0.742500 0.170000 -0.392000
v -0.624500 0.170000 -0.392000
v -0.624500 0.170000 -0.095642
v -0.351889 0.170000 -0.392000
v -0.202720 0.170000 -0.392000
v -0.508550 0.170000 -0.059398
v -0.127833 0.170000 0.310000
v -0.291557 -0.170000 0.310000
v -0.624500 -0.170000 -0.013348
v -0.624500 -0.170000 0.310000
v -0.742500 -0.170000 0.310000
v -0.742500 -0.170000 -0.392000
v -0.624500 -0.170000 -0.392000
v -0.624500 -0.170000 -0.095642
v -0.351889 -0.170000 -0.392000
v -0.202720 -0.170000 -0.392000
v -0.508550 -0.170000 -0.059398
v -0.127833 -0.170000 0.310000
v -0.291557 -0.170000 0.310000
v -0.294662 -0.168478 0.317654
v -0.297294 -0.164142 0.324142
v -0.299053 -0.157654 0.328478
v -0.299670 -0.150000 0.330000
v -0.299670 0.150000 0.330000
v -0.299053 0.157654 0.328478
v -0.297294 0.164142 0.324142
v -0.294662 0.168478 0.317654
v -0.291557 0.170000 0.310000
v -0.624500 -0.170000 -0.013348
v -0.616846 -0.168478 0.004754
v -0.610358 -0.164142 0.020100
v -0.606022 -0.157654 0.030354
v -0.604500 -0.150000 0.033955
v -0.604500 0.150000 0.033955
v -0.606022 0.157654 0.030354
v -0.610358 0.164142 0.020100
v -0.616846 0.168478 0.004754
v -0.624500 0.170000 -0.013348
v -0.624500 -0.170000 0.310000
v -0.616846 -0.168478 0.317654
v -0.610358 -0.164142 0.324142
v -0.606022 -0.157654 0.328478
v -0.604500 -0.150000 0.330000
v -0.604500 0.150000 0.330000
v -0.606022 0.157654 0.328478
v -0.610358 0.164142 0.324142
v -0.616846 0.168478 0.317654
v -0.624500 0.170000 0.310000
v -0.742500 -0.170000 0.310000
v -0.750154 -0.168478 0.317654
v -0.756642 -0.164142 0.324142
v -0.760978 -0.157654 0.328478
v -0.762500 -0.150000 0.330000
v -0.762500 0.150000 0.330000
v -0.760978 0.157654 0.328478
v -0.756642 0.164142 0.324142
v -0.750154 0.168478 0.317654
v -0.742500 0.170000 0.310000
v -0.742500 -0.170000 -0.392000
v -0.750154 -0.168478 -0.399654
v -0.756642 -0.164142 -0.406142
v -0.760978 -0.157654 -0.410478
v -0.762500 -0.150000 -0.412000
v -0.762500 0.150000 -0.412000
v -0.760978 0.157654 -0.410478
v -0.756642 0.164142 -0.406142
v -0.750154 0.168478 -0.399654
v -0.742500 0.170000 -0.392000
v -0.624500 -0.170000 -0.392000
v -0.616846 -0.168478 -0.399654
v -0.610358 -0.164142 -0.406142
v -0.606022 -0.157654 -0.410478
v -0.604500 -0.150000 -0.412000
v -0.604500 0.150000 -0.412000
v -0.606022 0.157654 -0.410478
v -0.610358 0.164142 -0.406142
v -0.616846 0.168478 -0.399654
v -0.624500 0.170000 -0.392000
v -0.624500 -0.170000 -0.095642
v -0.616846 -0.168478 -0.115268
v -0.610358 -0.164142 -0.131905
v -0.606022 -0.157654 -0.143022
v -0.604500 -0.150000 -0.146926
v -0.604500 0.150000 -0.146926
v -0.606022 0.157654 -0.143022
v -0.610358 0.164142 -0.131905
v -0.616846 0.168478 -0.115268
v -0.624500 0.170000 -0.095642
v -0.351889 -0.170000 -0.392000
v -0.355248 -0.168478 -0.399654
v -0.358095 -0.164142 -0.406142
v -0.359998 -0.157654 -0.410478
v -0.360666 -0.150000 -0.412000
v -0.360666 0.150000 -0.412000
v -0.359998 0.157654 -0.410478
v -0.358095 0.164142 -0.406142
v -0.355248 0.168478 -0.399654
v -0.351889 0.170000 -0.392000
v -0.202720 -0.170000 -0.392000
v -0.185285 -0.168478 -0.399654
v -0.170504 -0.164142 -0.406142
v -0.160628 -0.157654 -0.410478
v -0.157160 -0.150000 -0.412000
v -0.157160 0.150000 -0.412000
v -0.160628 0.157654 -0.410478
v -0.170504 0.164142 -0.406142
v -0.185285 0.168478 -0.399654
v -0.202720 0.170000 -0.392000
v -0.508550 -0.170000 -0.059398
v -0.497872 -0.168478 -0.059702
v -0.488820 -0.164142 -0.059960
v -0.482772 -0.157654 -0.060133
v -0.480648 -0.150000 -0.060193
v -0.480648 0.150000 -0.060193
v -0.482772 0.157654 -0.060133
v -0.488820 0.164142 -0.059960
v -0.497872 0.168478 -0.059702
v -0.508550 0.170000 -0.059398
v -0.127833 -0.170000 0.310000
v -0.108954 -0.168478 0.317654
v -0.092949 -0.164142 0.324142
v -0.082255 -0.157654 0.328478
v -0.078500 -0.150000 0.330000
v -0.078500 0.150000 0.330000
v -0.082255 0.157654 0.328478
v -0.092949 0.164142 0.324142
v -0.108954 0.168478 0.317654
v -0.127833 0.170000 0.310000
vt 0.300000 0.000000
vt 0.500000 0.000000
vt 0.400000 0.000000
vt 0.600000 0.000000
vt 0.800000 0.000000
vt 0.700000 0.000000
vt 0.900000 0.000000
vt 0.100000 0.000000
vt 1.000000 0.000000
vt 0.200000 0.000000
vt 0.000000 0.000000
vt 0.500000 0.000000
vt 0.300000 0.000000
vt 0.400000 0.000000
vt 0.600000 0.000000
vt 0.800000 0.000000
vt 0.700000 0.000000
vt 0.900000 0.000000
vt 0.100000 0.000000
vt 1.000000 0.000000
vt 0.200000 0.000000
vt 0.000000 0.000000
vt 0.000000 0.111111
vt 0.090909 0.111111
vt 0.090909 0.000000
vt 0.000000 0.000000
vt 0.000000 0.222222
vt 0.090909 0.222222
vt 0.000000 0.333333
vt 0.090909 0.333333
vt 0.000000 0.444444
vt 0.090909 0.444444
vt 0.000000 0.555556
vt 0.090909 0.555556
vt 0.000000 0.666667
vt 0.090909 0.666667
vt 0.000000 0.777778
vt 0.090909 0.777778
vt 0.000000 0.888889
vt 0.090909 0.888889
vt 0.000000 1.000000
vt 0.090909 1.000000
vt 0.181818 0.111111
vt 0.181818 0.000000
vt 0.181818 0.222222
vt 0.181818 0.333333
vt 0.181818 0.444444
vt 0.181818 0.555556
vt 0.181818 0.666667
vt 0.181818 0.777778
vt 0.181818 0.888889
vt 0.181818 1.000000
vt 0.272727 0.111111
vt 0.272727 0.000000
vt 0.272727 0.222222
vt 0.272727 0.333333
vt 0.272727 0.444444
vt 0.272727 0.555556
vt 0.272727 0.666667
vt 0.272727 0.777778
vt 0.272727 0.888889
vt 0.272727 1.000000
vt 0.363636 0.111111
vt 0.363636 0.000000
vt 0.363636 0.222222
vt 0.363636 0.333333
vt 0.363636 0.444444
vt 0.363636 0.555556
vt 0.363636 0.666667
vt 0.363636 0.777778
vt 0.363636 0.888889
vt 0.363636 1.000000
vt 0.454545 0.111111
vt 0.454545 0.000000
vt 0.454545 0.222222
vt 0.454545 0.333333
vt 0.454545 0.444444
vt 0.454545 0.555556
vt 0.454545 0.666667
vt 0.454545 0.777778
vt 0.454545 0.888889
vt 0.454545 1.000000
vt 0.545455 0.111111
vt 0.545455 0.000000
vt 0.545455 0.222222
vt 0.545455 0.333333
vt 0.545455 0.444444
vt 0.545455 0.555556
vt 0.545455 0.666667
vt 0.545455 0.777778
vt 0.545455 0.888889
vt 0.545455 1.000000
vt 0.636364 0.111111
vt 0.636364 0.000000
vt 0.636364 0.222222
vt 0.636364 0.333333
vt 0.636364 0.444444
vt 0.636364 0.555556
vt 0.636364 0.666667
vt 0.636364 0.777778
vt 0.636364 0.888889
vt 0.636364 1.000000
vt 0.727273 0.111111
vt 0.727273 0.000000
vt 0.727273 0.222222
vt 0.727273 0.333333
vt 0.727273 0.444444
vt 0.727273 0.555556
vt 0.727273 0.666667
vt 0.727273 0.777778
vt 0.727273 0.888889
vt 0.727273 1.000000
vt 0.818182 0.111111
vt 0.818182 0.000000
vt 0.818182 0.222222
vt 0.818182 0.333333
vt 0.818182 0.444444
vt 0.818182 0.555556
vt 0.818182 0.666667
vt 0.818182 0.777778
vt 0.818182 0.888889
vt 0.818182 1.000000
vt 0.909091 0.111111
vt 0.909091 0.000000
vt 0.909091 0.222222
vt 0.909091 0.333333
vt 0.909091 0.444444
vt 0.909091 0.555556
vt 0.909091 0.666667
vt 0.909091 0.777778
vt 0.909091 0.888889
vt 0.909091 1.000000
vt 1.000000 0.111111
vt 1.000000 0.000000
vt 1.000000 0.222222
vt 1.000000 0.333333
vt 1.000000 0.444444
vt 1.000000 0.555556
vt 1.000000 0.666667
vt 1.000000 0.777778
vt 1.000000 0.888889
vt 1.000000 1.000000
vn 0.0000 1.0000 0.0000
vn 0.0000 -1.0000 0.0000
vn -0.1496 -0.9173 0.3689
vn 0.0390 -0.9950 0.0923
vn 0.0301 -0.9970 0.0711
vn -0.0681 -0.9834 0.1679
vn -0.2652 -0.7087 0.6537
vn 0.1137 -0.9564 0.2690
vn -0.3463 -0.3888 0.8537
vn 0.2381 -0.7912 0.5633
vn -0.3739 -0.1030 0.9217
vn 0.3746 -0.2730 0.8860
vn -0.3739 0.1030 0.9217
vn 0.3746 0.2730 0.8860
vn -0.3463 0.3888 0.8537
vn 0.2381 0.7912 0.5633
vn -0.2652 0.7087 0.6537
vn 0.1137 0.9564 0.2690
vn -0.1496 0.9173 0.3689
vn 0.0390 0.9950 0.0923
vn -0.0681 0.9834 0.1679
vn 0.0301 0.9970 0.0711
vn 0.2484 -0.9362 0.2484
vn 0.0985 -0.9902 0.0985
vn 0.4521 -0.7689 0.4521
vn 0.6310 -0.4514 0.6310
vn 0.7012 -0.1290 0.7012
vn 0.7012 0.1290 0.7012
vn 0.6310 0.4514 0.6310
vn 0.4521 0.7689 0.4521
vn 0.2484 0.9362 0.2484
vn 0.0985 0.9902 0.0985
vn -0.2484 -0.9362 0.2484
vn -0.0985 -0.9902 0.0985
vn -0.4521 -0.7689 0.4521
vn -0.6310 -0.4514 0.6310
vn -0.7012 -0.1290 0.7012
vn -0.7012 0.1290 0.7012
vn -0.6310 0.4514 0.6310
vn -0.4521 0.7689 0.4521
vn -0.2484 0.9362 0.2484
vn -0.0985 0.9902 0.0985
vn -0.2484 -0.9362 -0.2484
vn -0.0985 -0.9902 -0.0985
vn -0.4521 -0.7689 -0.4521
vn -0.6310 -0.4514 -0.6310
vn -0.7012 -0.1290 -0.7012
vn -0.7012 0.1290 -0.7012
vn -0.6310 0.4514 -0.6310
vn -0.4521 0.7689 -0.4521
vn -0.2484 0.9362 -0.2484
vn -0.0985 0.9902 -0.0985
vn 0.2484 -0.9362 -0.2484
vn 0.0985 -0.9902 -0.0985
vn 0.4521 -0.7689 -0.4521
vn 0.6310 -0.4514 -0.6310
vn 0.7012 -0.1290 -0.7012
vn 0.7012 0.1290 -0.7012
vn 0.6310 0.4514 -0.6310
vn 0.4521 0.7689 -0.4521
vn 0.2484 0.9362 -0.2484
vn 0.0985 0.9902 -0.0985
vn 0.0334 -0.9957 -0.0858
vn 0.0262 -0.9974 -0.0671
vn 0.0987 -0.9624 -0.2531
vn 0.2112 -0.8136 -0.5417
vn 0.3474 -0.2929 -0.8908
vn 0.3474 0.2929 -0.8908
vn 0.2112 0.8136 -0.5417
vn 0.0987 0.9624 -0.2531
vn 0.0334 0.9957 -0.0858
vn 0.0262 0.9974 -0.0671
vn -0.1596 -0.9178 -0.3636
vn -0.0720 -0.9838 -0.1641
vn -0.2826 -0.7109 -0.6440
vn -0.3699 -0.3911 -0.8427
vn -0.3997 -0.1039 -0.9107
vn -0.3997 0.1039 -0.9107
vn -0.3699 0.3911 -0.8427
vn -0.2826 0.7109 -0.6440
vn -0.1596 0.9178 -0.3636
vn -0.0720 0.9838 -0.1641
vn 0.2127 -0.9726 -0.0934
vn 0.0730 -0.9968 -0.0320
vn 0.4262 -0.8850 -0.1871
vn 0.7312 -0.6019 -0.3210
vn 0.8966 -0.2028 -0.3936
vn 0.8966 0.2028 -0.3936
vn 0.7312 0.6019 -0.3210
vn 0.4262 0.8850 -0.1871
vn 0.2127 0.9726 -0.0934
vn 0.0730 0.9968 -0.0320
vn 0.2192 -0.9756 -0.0062
vn 0.1410 -0.9900 -0.0040
vn 0.5282 -0.8490 -0.0150
vn 0.8405 -0.5412 -0.0240
vn 0.9892 -0.1438 -0.0282
vn 0.9892 0.1438 -0.0282
vn 0.8405 0.5412 -0.0240
vn 0.5282 0.8490 -0.0150
vn 0.2192 0.9756 -0.0062
vn 0.1410 0.9900 -0.0040
vn 0.2036 -0.9756 0.0825
vn 0.0691 -0.9972 0.0280
vn 0.4118 -0.8958 0.1669
vn 0.7269 -0.6203 0.2947
vn 0.9054 -0.2131 0.3670
vn 0.9054 0.2131 0.3670
vn 0.7269 0.6203 0.2947
vn 0.4118 0.8958 0.1669
vn 0.2036 0.9756 0.0825
vn 0.0691 0.9972 0.0280
usemtl None
s off
f 4/1/1 6/2/1 5/3/1
f 4/1/1 7/4/1 6/2/1
f 7/4/1 9/5/1 8/6/1
f 7/4/1 10/7/1 9/5/1
f 4/1/1 2/8/1 7/4/1
f 2/8/1 10/7/1 7/4/1
f 2/8/1 11/9/1 10/7/1
f 4/1/1 3/10/1 2/8/1
f 1/11/1 11/9/1 2/8/1
f 17/12/2 15/13/2 16/14/2
f 18/15/2 15/13/2 17/12/2
f 20/16/2 18/15/2 19/17/2
f 21/18/2 18/15/2 20/16/2
f 13/19/2 15/13/2 18/15/2
f 21/18/2 13/19/2 18/15/2
f 22/20/2 13/19/2 21/18/2
f 14/21/2 15/13/2 13/19/2
f 22/20/2 12/22/2 13/19/2
s 1
f 24/23/3 34/24/4 33/25/5 23/26/6
f 25/27/7 35/28/8 34/24/4 24/23/3
f 26/29/9 36/30/10 35/28/8 25/27/7
f 27/31/11 37/32/12 36/30/10 26/29/9
f 28/33/13 38/34/14 37/32/12 27/31/11
f 29/35/15 39/36/16 38/34/14 28/33/13
f 30/37/17 40/38/18 39/36/16 29/35/15
f 31/39/19 41/40/20 40/38/18 30/37/17
f 32/41/21 42/42/22 41/40/20 31/39/19
f 34/24/4 44/43/23 43/44/24 33/25/5
f 35/28/8 45/45/25 44/43/23 34/24/4
f 36/30/10 46/46/26 45/45/25 35/28/8
f 37/32/12 47/47/27 46/46/26 36/30/10
f 38/34/14 48/48/28 47/47/27 37/32/12
f 39/36/16 49/49/29 48/48/28 38/34/14
f 40/38/18 50/50/30 49/49/29 39/36/16
f 41/40/20 51/51/31 50/50/30 40/38/18
f 42/42/22 52/52/32 51/51/31 41/40/20
f 44/43/23 54/53/33 53/54/34 43/44/24
f 45/45/25 55/55/35 54/53/33 44/43/23
f 46/46/26 56/56/36 55/55/35 45/45/25
f 47/47/27 57/57/37 56/56/36 46/46/26
f 48/48/28 58/58/38 57/57/37 47/47/27
f 49/49/29 59/59/39 58/58/38 48/48/28
f 50/50/30 60/60/40 59/59/39 49/49/29
f 51/51/31 61/61/41 60/60/40 50/50/30
f 52/52/32 62/62/42 61/61/41 51/51/31
f 54/53/33 64/63/43 63/64/44 53/54/34
f 55/55/35 65/65/45 64/63/43 54/53/33
f 56/56/36 66/66/46 65/65/45 55/55/35
f 57/57/37 67/67/47 66/66/46 56/56/36
f 58/58/38 68/68/48 67/67/47 57/57/37
f 59/59/39 69/69/49 68/68/48 58/58/38
f 60/60/40 70/70/50 69/69/49 59/59/39
f 61/61/41 71/71/51 70/70/50 60/60/40
f 62/62/42 72/72/52 71/71/51 61/61/41
f 64/63/43 74/73/53 73/74/54 63/64/44
f 65/65/45 75/75/55 74/73/53 64/63/43
f 66/66/46 76/76/56 75/75/55 65/65/45
f 67/67/47 77/77/57 76/76/56 66/66/46
f 68/68/48 78/78/58 77/77/57 67/67/47
f 69/69/49 79/79/59 78/78/58 68/68/48
f 70/70/50 80/80/60 79/79/59 69/69/49
f 71/71/51 81/81/61 80/80/60 70/70/50
f 72/72/52 82/82/62 81/81/61 71/71/51
f 74/73/53 84/83/63 83/84/64 73/74/54
f 75/75/55 85/85/65 84/83/63 74/73/53
f 76/76/56 86/86/66 85/85/65 75/75/55
f 77/77/57 87/87/67 86/86/66 76/76/56
f 78/78/58 88/88/68 87/87/67 77/77/57
f 79/79/59 89/89/69 88/88/68 78/78/58
f 80/80/60 90/90/70 89/89/69 79/79/59
f 81/81/61 91/91/71 90/90/70 80/80/60
f 82/82/62 92/92/72 91/91/71 81/81/61
f 84/83/63 94/93/73 93/94/74 83/84/64
f 85/85/65 95/95/75 94/93/73 84/83/63
f 86/86/66 96/96/76 95/95/75 85/85/65
f 87/87/67 97/97/77 96/96/76 86/86/66
f 88/88/68 98/98/78 97/97/77 87/87/67
f 89/89/69 99/99/79 98/98/78 88/88/68
f 90/90/70 100/100/80 99/99/79 89/89/69
f 91/91/71 101/101/81 100/100/80 90/90/70
f 92/92/72 102/102/82 101/101/81 91/91/71
f 94/93/73 104/103/83 103/104/84 93/94/74
f 95/95/75 105/105/85 104/103/83 94/93/73
f 96/96/76 106/106/86 105/105/85 95/95/75
f 97/97/77 107/107/87 106/106/86 96/96/76
f 98/98/78 108/108/88 107/107/87 97/97/77
f 99/99/79 109/109/89 108/108/88 98/98/78
f 100/100/80 110/110/90 109/109/89 99/99/79
f 101/101/81 111/111/91 110/110/90 100/100/80
f 102/102/82 112/112/92 111/111/91 101/101/81
f 104/103/83 114/113/93 113/114/94 103/104/84
f 105/105/85 115/115/95 114/113/93 104/103/83
f 106/106/86 116/116/96 115/115/95 105/105/85
f 107/107/87 117/117/97 116/116/96 106/106/86
f 108/108/88 118/118/98 117/117/97 107/107/87
f 109/109/89 119/119/99 118/118/98 108/108/88
f 110/110/90 120/120/100 119/119/99 109/109/89
f 111/111/91 121/121/101 120/120/100 110/110/90
f 112/112/92 122/122/102 121/121/101 111/111/91
f 114/113/93 124/123/103 123/124/104 113/114/94
f 115/115/95 125/125/105 124/123/103 114/113/93
f 116/116/96 126/126/106 125/125/105 115/115/95
f 117/117/97 127/127/107 126/126/106 116/116/96
f 118/118/98 128/128/108 127/127/107 117/117/97
f 119/119/99 129/129/109 128/128/108 118/118/98
f 120/120/100 130/130/110 129/129/109 119/119/99
f 121/121/101 131/131/111 130/130/110 120/120/100
f 122/122/102 132/132/112 131/131/111 121/121/101
f 124/123/103 24/133/3 23/134/6 123/124/104
f 125/125/105 25/135/7 24/133/3 124/123/103
f 126/126/106 26/136/9 25/135/7 125/125/105
f 127/127/107 27/137/11 26/136/9 126/126/106
f 128/128/108 28/138/13 27/137/11 127/127/107
f 129/129/109 29/139/15 28/138/13 128/128/108
f 130/130/110 30/140/17 29/139/15 129/129/109
f 131/131/111 31/141/19 30/140/17 130/130/110
f 132/132/112 32/142/21 31/141/19 131/131/111
